<svg width="208" height="47" viewBox="0 0 208 47" fill="none" xmlns="http://www.w3.org/2000/svg">
<g id="Group 14">
<g id="medsync">
<path d="M32.6127 9.73743C34.9837 9.73743 36.8731 10.4043 38.2809 11.738C39.7258 13.0717 40.4853 14.8315 40.5594 17.0173V35.2447H32.8349V20.2404C32.7609 19.0179 32.5571 18.1102 32.2237 17.5174C31.8902 16.8876 31.2419 16.5357 30.2787 16.4616C28.4633 16.4616 27.037 17.3507 25.9997 19.129C24.9994 20.8702 24.4992 22.9264 24.4992 25.2974V35.2447H16.7192V20.2404C16.6451 19.0179 16.4229 18.1102 16.0524 17.5174C15.6819 16.8876 14.9965 16.5357 13.9962 16.4616C12.255 16.4616 10.8842 17.3507 9.88395 19.129C8.88366 20.8702 8.38352 22.8893 8.38352 25.1863V35.2447H0.603516V10.96H7.66109L8.2168 14.7944C10.1803 11.4231 13.1071 9.73743 16.9971 9.73743C18.9606 9.73743 20.5722 10.145 21.8318 10.96C23.1285 11.738 24.0176 12.905 24.4992 14.461C25.5366 13.0161 26.7591 11.8677 28.1669 11.0156C29.6118 10.1635 31.0937 9.73743 32.6127 9.73743Z" fill="url(#paint0_linear_40_956)"/>
<path d="M58.1911 29.2986C59.7471 29.2986 61.3587 28.7614 63.0259 27.687L66.4713 33.4664C65.1376 34.2074 63.7298 34.8001 62.2479 35.2447C60.766 35.6893 59.3581 35.9116 58.0244 35.9116C55.1347 35.9116 52.634 35.3744 50.5223 34.3C48.4476 33.1886 46.8731 31.6511 45.7987 29.6876C44.7243 27.687 44.1872 25.4086 44.1872 22.8523C44.1872 20.4812 44.7984 18.2954 46.021 16.2949C47.2806 14.2943 48.9848 12.7198 51.1336 11.5713C53.2823 10.3858 55.6349 9.793 58.1911 9.793C61.6736 9.793 64.5263 10.8118 66.7491 12.8494C69.0091 14.887 70.4724 17.7953 71.1393 21.5741L53.3564 27.2424C54.542 28.6132 56.1535 29.2986 58.1911 29.2986ZM57.5799 15.8503C55.8386 15.8503 54.4493 16.443 53.412 17.6286C52.3747 18.8141 51.856 20.4071 51.856 22.4077V22.9079L62.5257 19.2957C61.7477 16.9988 60.0991 15.8503 57.5799 15.8503Z" fill="url(#paint1_linear_40_956)"/>
<path d="M100.966 0.290283V35.2447H93.1864V32.6884C90.3708 34.8372 87.3699 35.9116 84.1838 35.9116C81.9239 35.9116 79.9048 35.3744 78.1265 34.3C76.3483 33.2256 74.9404 31.6881 73.9031 29.6876C72.9028 27.687 72.4027 25.3345 72.4027 22.63C72.4027 19.9626 72.9399 17.6656 74.0142 15.7391C75.1257 13.7756 76.6446 12.2937 78.5711 11.2934C80.4976 10.2561 82.7019 9.73743 85.1841 9.73743C86.7772 9.73743 88.2776 9.99676 89.6854 10.5154C91.0932 10.997 92.2787 11.7195 93.242 12.6827V0.290283H100.966ZM86.7401 29.3541C88.2961 29.3541 89.5928 29.0578 90.6301 28.465C91.6674 27.8352 92.5195 26.909 93.1864 25.6864V19.7403C92.7418 18.5548 91.9453 17.61 90.7968 16.9061C89.6483 16.2022 88.2961 15.8503 86.7401 15.8503C84.9989 15.8503 83.4799 16.4801 82.1832 17.7397C80.9236 18.9993 80.2938 20.5924 80.2938 22.5189C80.2938 23.7785 80.5902 24.9455 81.183 26.0199C81.7757 27.0572 82.5537 27.8722 83.517 28.465C84.5172 29.0578 85.5916 29.3541 86.7401 29.3541Z" fill="url(#paint2_linear_40_956)"/>
</g>
<g id="medsync_2">
<path d="M115.018 35.6336C113.018 35.6336 111.147 35.2817 109.405 34.5778C107.664 33.8739 106.219 32.8921 105.071 31.6325L108.294 27.3535C110.443 29.3541 112.462 30.3543 114.351 30.3543C115.352 30.3543 116.148 30.2061 116.741 29.9098C117.371 29.5763 117.686 29.0947 117.686 28.4649C117.686 27.724 117.334 27.1682 116.63 26.7978C115.926 26.3902 115.129 26.0568 114.24 25.7975C113.388 25.5381 112.814 25.3714 112.517 25.2973C110.406 24.6305 108.831 23.6487 107.794 22.3521C106.757 21.0183 106.238 19.4994 106.238 17.7952C106.238 16.4985 106.571 15.2389 107.238 14.0163C107.942 12.7567 109.016 11.7379 110.461 10.9599C111.906 10.1449 113.703 9.73734 115.852 9.73734C117.852 9.73734 119.556 9.9411 120.964 10.3486C122.372 10.7561 123.724 11.423 125.021 12.3492L122.076 16.9061C121.335 16.3133 120.501 15.8317 119.575 15.4612C118.686 15.0537 117.871 14.8499 117.13 14.8499C116.241 14.8499 115.518 15.0351 114.963 15.4056C114.407 15.7761 114.129 16.2207 114.129 16.7393C114.092 17.5173 114.407 18.1101 115.074 18.5176C115.778 18.8881 116.852 19.2771 118.297 19.6846C118.519 19.7587 118.741 19.8328 118.964 19.9069C119.223 19.981 119.482 20.0551 119.742 20.1292C123.558 21.3888 125.466 23.6858 125.466 27.0201C125.466 28.5761 125.077 30.0024 124.299 31.2991C123.521 32.5957 122.335 33.6516 120.742 34.4666C119.186 35.2446 117.278 35.6336 115.018 35.6336Z" fill="#FE8C8C"/>
<path d="M154.6 10.8488L138.929 46.8035H131.426L137.261 33.8553L126.036 10.8488H134.761L141.151 25.1862L147.598 10.8488H154.6Z" fill="#FE8C8C"/>
<path d="M173.56 9.68176C175.857 9.68176 177.765 10.3671 179.283 11.7379C180.839 13.1087 181.636 14.8499 181.673 16.9616V35.1335H173.893V19.8513C173.782 17.4803 172.596 16.2948 170.336 16.2948C168.558 16.2948 167.132 17.1283 166.057 18.7955C164.983 20.4626 164.446 22.6114 164.446 25.2418V35.1335H156.666V10.8488H163.723L164.279 14.7388C165.168 13.1457 166.391 11.9046 167.947 11.0155C169.54 10.1263 171.411 9.68176 173.56 9.68176Z" fill="#FE8C8C"/>
<path d="M207.778 32.9662C206.703 33.8183 205.351 34.5037 203.721 35.0223C202.128 35.541 200.553 35.8003 198.997 35.8003C194.774 35.8003 191.421 34.6704 188.939 32.4105C186.494 30.1135 185.271 26.9645 185.271 22.9633C185.271 20.37 185.864 18.1101 187.05 16.1836C188.272 14.2201 189.865 12.7382 191.829 11.7379C193.792 10.7006 195.904 10.1819 198.164 10.1819C202.202 10.1819 205.481 11.2563 208 13.4051L204.221 18.4065C202.628 17.1469 200.85 16.5171 198.886 16.5171C197.256 16.5171 195.867 17.1283 194.718 18.3509C193.607 19.5735 193.051 21.111 193.051 22.9633C193.051 24.8157 193.663 26.3717 194.885 27.6313C196.108 28.8539 197.701 29.4652 199.664 29.4652C201.368 29.4652 202.776 29.0021 203.888 28.0759L207.778 32.9662Z" fill="#FE8C8C"/>
</g>
</g>
<defs>
<linearGradient id="paint0_linear_40_956" x1="6.61596" y1="-12.6991" x2="48.4223" y2="31.6563" gradientUnits="userSpaceOnUse">
<stop stop-color="#C9ADE6"/>
<stop offset="1" stop-color="#732FA8"/>
</linearGradient>
<linearGradient id="paint1_linear_40_956" x1="6.61596" y1="-12.6991" x2="48.4223" y2="31.6563" gradientUnits="userSpaceOnUse">
<stop stop-color="#C9ADE6"/>
<stop offset="1" stop-color="#732FA8"/>
</linearGradient>
<linearGradient id="paint2_linear_40_956" x1="6.61596" y1="-12.6991" x2="48.4223" y2="31.6563" gradientUnits="userSpaceOnUse">
<stop stop-color="#C9ADE6"/>
<stop offset="1" stop-color="#732FA8"/>
</linearGradient>
</defs>
</svg>
