<svg width="15" height="12" viewBox="0 0 15 12" fill="none" xmlns="http://www.w3.org/2000/svg">
<path id="XMLID_276_" d="M14.9002 0.584C14.7229 0.224 14.3474 0 13.9204 0H1.07968C0.652764 0 0.277269 0.224 0.0994308 0.584C-0.0768003 0.941 -0.0157354 1.349 0.258521 1.648L0.259057 1.6485L5.35744 7.1855V11.5C5.35744 11.6845 5.46618 11.854 5.64026 11.941C5.71954 11.9805 5.80632 12 5.89309 12C5.99701 12 6.10039 11.9715 6.19038 11.916L9.40432 9.916C9.55324 9.823 9.64269 9.667 9.64269 9.5V7.1855L14.7416 1.6485C15.0159 1.349 15.0769 0.941 14.9002 0.584Z" fill="black"/>
</svg>
